<?xml version="1.0" encoding="utf-8"?>
<!-- Generator: Adobe Illustrator 16.0.4, SVG Export Plug-In . SVG Version: 6.00 Build 0)  -->
<!DOCTYPE svg PUBLIC "-//W3C//DTD SVG 1.1//EN" "http://www.w3.org/Graphics/SVG/1.1/DTD/svg11.dtd">
<svg version="1.1" xmlns="http://www.w3.org/2000/svg" xmlns:xlink="http://www.w3.org/1999/xlink" x="0px" y="0px"
	 width="575.333px" height="176px" viewBox="0 0 575.333 176" enable-background="new 0 0 575.333 176" xml:space="preserve">
<g id="Layer_3" display="none">
	
		<rect x="-133.833" y="-159.033" display="inline" fill="#313139" stroke="#313139" stroke-miterlimit="10" width="841.92" height="595.2"/>
</g>
<g id="Text_Before_Unite" display="none">
	<path display="inline" fill="#1D6A81" d="M91.867,49.537c3.398,0,6.097-1.392,8.087-4.18c1.991-2.784,2.986-6.271,2.986-10.451
		c-0.167-7.14-3.569-12.452-10.202-15.938c-6.637-3.482-14.02-5.226-22.146-5.226c-12.111,0-22.935,3.486-32.473,10.451
		c-9.541,6.969-14.308,16.289-14.308,27.956c0,6.622,2.24,12.542,6.718,17.767c4.479,5.226,9.911,9.667,16.299,13.325
		c6.384,3.658,12.729,7.275,19.036,10.843c6.302,3.572,11.695,7.883,16.174,12.933c4.479,5.054,6.718,10.712,6.718,16.983
		c0,9.406-3.277,17.419-9.829,24.037c-6.555,6.622-14.432,9.928-23.639,9.928c-9.207,0-16.341-2.352-21.399-7.054
		c-5.062-4.703-7.675-9.929-7.838-15.677c0-5.05,2.819-7.577,8.46-7.577c2.986,0,4.479-1.307,4.479-3.919
		c-0.498-2.613-1.827-4.703-3.981-6.271c-2.158-1.567-4.564-2.351-7.216-2.351c-6.804,0-12.03,2.266-15.677,6.793
		c-3.651,4.531-5.474,9.582-5.474,15.154c0,10.451,4.479,18.249,13.437,23.384c8.958,5.136,20.156,7.708,33.592,7.708
		c13.437,0,25.96-4.441,37.574-13.325c11.609-8.883,17.418-21.073,17.418-36.578c0-7.487-2.201-14.195-6.594-20.118
		c-4.397-5.919-9.705-10.753-15.925-14.501c-6.221-3.744-12.442-7.226-18.663-10.451c-6.221-3.221-11.532-6.879-15.925-10.974
		c-4.397-4.09-6.594-8.883-6.594-14.37c0-5.486,2.446-10.712,7.341-15.676c4.891-4.964,10.657-7.446,17.294-7.446
		c11.446,0,17.5,4.703,18.165,14.109l-1.244,6.793C86.681,48.23,88.465,49.537,91.867,49.537z"/>
	<path display="inline" fill="#1D6A81" d="M159.854,68.502c-0.994,0.04-5.369,1.153-10.758,3.766
		c-5.393,2.613-10.327,4.356-14.806,5.226c2.321-27.172,3.483-42.412,3.483-45.723c0-7.14-1.081-10.712-3.234-10.712
		c-2.489,0-5.062,1.482-7.714,4.441c-2.656,2.964-4.23,6.099-4.728,9.406c-1.991,12.892-3.732,25.604-5.226,38.146
		c-2.655-1.392-5.723-2.09-9.207-2.09c-3.484,0-5.226,1.396-5.226,4.18c0.498,5.401,4.895,8.973,13.188,10.712
		c-2.325,24.037-3.483,42.416-3.483,55.128c0,12.717,0.785,20.208,2.364,22.47c1.575,2.262,6.882,3.396,15.925,3.396
		c9.04,0,16.879-7.625,29.986-36.887 M161.334,109.5c0-1.392-2.256-8.333-3.333-8.333c-1.081,0-1.693-0.906-6.584,10.5
		c-4.895,11.41-0.952,23.744-5.929,30.884c-4.977,7.144-8.958,10.802-11.944,10.974c-1.991,0-2.986-3.482-2.986-10.451
		c0-13.063,0.995-32.308,2.986-57.741c7.298-1.568,14.098-3.875,20.404-6.924"/>
	<path display="inline" fill="#1D6A81" d="M183.167,114.917c-4.895,11.325-3.84,20.277-8.817,27.503
		c-4.977,7.23-8.876,10.933-11.695,11.104c-0.995,0-1.493-2.352-1.493-7.055c0-24.384,1.077-39.452,3.235-45.2
		c1.159-2.262,2.197-5.919,3.11-10.974c0.91-5.05,1.369-8.446,1.369-10.189c0-6.618-1.418-8.941-3.608-9.929
		c-10.694-4.823-5.766,1.919-10.078,5.748c-4.315,3.833-6.886,6.446-7.714,7.838c-0.832,1.396-1.784,10.843-2.861,28.348
		c-1.081,17.505-1.618,30.006-1.618,37.493c0,7.491,0.58,11.847,1.742,13.064c3.316,2.788,8.211,4.18,14.681,4.18
		c8.958,0,15.39-9.169,28.497-38.432l-1.25-6"/>
	<path display="inline" fill="#1D6A81" d="M231.827,139.154c-3.32,4.531-6.967,8.014-10.948,10.451
		c-3.981,2.441-8.503,3.658-13.562,3.658c-5.062,0-9.331-2.743-12.815-8.23s-5.226-12.672-5.226-21.555s2.24-18.158,6.719-27.825
		c4.479-9.667,9.786-14.501,15.925-14.501c1.823,0,3.316,0.784,4.479,2.352c1.158,1.567,1.742,3.311,1.742,5.226l-1.991,13.325
		c0,3.311,1.407,4.964,4.23,4.964l0,0c3.316,0,6.135-1.653,8.46-4.964c2.321-3.307,3.484-8.361,3.484-15.154
		c0-3.658-1.536-6.924-4.604-9.798c-3.072-2.874-7.259-4.311-12.566-4.311c-12.608,0-23.017,5.185-31.228,15.546
		c-8.211,10.365-12.317,25.474-12.317,45.331c0,8.014,2.446,15.546,7.341,22.6c4.891,7.054,12.068,10.582,21.524,10.582
		c12.441,0,22.807-4.875,31.104-14.631c3.981-4.703,7.255-9.186,9.829-13.456"/>
	<path display="inline" fill="#1D6A81" d="M386.832,128.5c-4.895,11.325,1.257,6.694-3.719,13.92
		c-4.977,7.23-8.876,10.933-11.695,11.104c-0.995,0-1.493-2.352-1.493-7.055c0-24.384,0.747-38.579,2.239-42.587
		c1.159-2.262,2.197-5.919,3.11-10.974c0.91-5.05,1.369-8.446,1.369-10.19c0-6.617-1.205-9.928-3.608-9.928
		c-2.407,0-5.311,1.352-8.709,4.05c-3.402,2.703-5.766,5.009-7.092,6.924c-6.637-7.316-12.609-10.974-17.916-10.974
		c-12.278,0-22.189,5.401-29.735,16.199c-7.551,10.802-11.322,23.212-11.322,37.231c0,14.023,2.488,24.298,7.465,30.83
		s10.781,9.798,17.418,9.798c6.633,0,12.068-2.743,16.298-8.23c4.23-5.487,8.499-13.889,12.815-25.213
		c-0.334,8.361-0.498,15.023-0.498,19.987s0.58,8.059,1.742,9.275c3.316,2.788,8.211,4.18,14.681,4.18
		c8.958,0,15.14-4.284,28.247-33.547 M347.654,87.03c3.732,2.527,6.345,5.185,7.838,7.969c-0.167,1.743-0.373,4.311-0.622,7.708
		c-0.249,3.396-0.458,5.793-0.622,7.185c-10.618,28.74-18.662,43.11-24.137,43.11c-4.479,0-8.087-3.135-10.824-9.406
		c-2.737-6.271-4.106-14.28-4.106-24.037c0-9.753,2.613-18.244,7.838-25.474c5.225-7.226,10.159-10.843,14.805-10.843
		C340.644,83.241,343.921,84.507,347.654,87.03z"/>
	<path display="inline" fill="#1D6A81" d="M444.075,84.156c-4.977-5.834-11.283-8.753-18.912-8.753
		c-4.813,0-8.794,0.698-11.944,2.09c4.642-17.938,6.967-33.615,6.967-47.029c0-6.095-0.708-11.235-2.115-15.415
		c-1.412-4.181-2.947-6.271-4.604-6.271c-3.484,0-7.177,2.311-11.073,6.923c-3.899,4.618-7.675,11.235-11.322,19.857
		c-3.651,8.622-6.637,20.424-8.958,35.403c-2.325,14.982-3.483,30.83-3.483,47.552c0,16.721,1.656,28.96,4.977,36.709
		c3.316,7.752,9.953,11.626,19.906,11.626c9.954,0,19.907-4.221,29.86-12.672c9.953-8.446,15.925-20.42,17.916-35.925l0.498-9.667
		C451.622,98.134,449.052,89.994,444.075,84.156z M400.405,66.389c1.742-12.974,3.647-23.253,5.724-30.831
		c2.072-7.577,3.856-11.365,5.35-11.365c1.823,0,2.737,3.658,2.737,10.973c0,13.938-5.475,37.191-16.423,69.76
		C397.792,92.214,398.663,79.367,400.405,66.389z M426.035,147.384c-5.56,5.14-11.24,7.708-17.045,7.708
		c-3.651,0-6.306-2.874-7.963-8.622c-1.66-5.748-2.655-15.24-2.986-28.479c2.154-4.005,4.063-8.186,5.723-12.542
		c0-2.437,10.408-16.938,11.82-18.419c1.407-1.478,3.273-2.221,5.599-2.221c5.307,0,9.207,2.703,11.695,8.1
		c2.488,5.401,3.317,22.384,3.484,29.524C435.032,133.928,431.591,142.248,426.035,147.384z"/>
	<path display="inline" fill="#1D6A81" d="M496.305,124.149c-4.895,11.325-5.453,11.045-10.429,18.271
		c-4.977,7.23-8.876,10.933-11.695,11.104c-1.827,0-2.737-5.356-2.737-16.068c0-10.712,0.249-23.294,0.747-37.754
		c13.103-28.042,19.657-53.385,19.657-76.03c0-3.135-0.665-6.401-1.99-9.798c-1.33-3.396-3.484-5.095-6.47-5.095
		c-12.776,0-20.902,13.847-24.386,41.542c-4.148,33.618-6.221,60.224-6.221,79.819c0,19.596,0.828,30.438,2.488,32.529
		c0.661,0.874,2.527,1.788,5.599,2.743c3.068,0.955,6.427,1.437,10.078,1.437c8.958,0,13.791-1.583,26.897-30.845l-1.319,2.563
		 M472.688,82.718c2.321-43.371,5.972-65.057,10.949-65.057c1.326,0,1.99,2.788,1.99,8.36
		C485.626,39.959,481.311,58.857,472.688,82.718L472.688,82.718z"/>
	<path display="inline" fill="#1D6A81" d="M552.311,138.893c10.117-17.416,15.179-30.479,15.179-39.191
		c0-1.392-0.458-2.09-1.369-2.09c-0.914,0-1.742,0.698-2.488,2.09c-0.747,1.396-1.785,3.658-3.11,6.793
		c-4.977,12.194-10.949,23.082-17.916,32.659c-3.32,4.531-6.967,8.014-10.948,10.451c-3.981,2.441-8.46,3.658-13.437,3.658
		s-9.332-2.482-13.064-7.446c-3.732-4.964-5.933-10.843-6.594-17.636c12.107-0.347,22.352-4.05,30.73-11.104
		c8.375-7.055,12.566-15.807,12.566-26.258c0-5.572-1.828-9.969-5.475-13.194c-3.651-3.221-8.297-4.833-13.935-4.833
		c-12.111,0-21.982,4.878-29.611,14.631c-7.632,9.757-11.446,24.127-11.446,43.11c0,9.406,2.737,17.812,8.211,25.213
		c5.474,7.405,12.854,11.104,22.146,11.104C527.839,166.849,541.362,157.533,552.311,138.893L552.311,138.893z M505.033,93.823
		c3.981-8.446,8.872-12.672,14.681-12.672c4.81,0,7.216,3.919,7.216,11.757s-2.282,14.199-6.843,19.073
		c-4.564,4.879-11.738,8.189-21.524,9.929C498.893,111.634,501.051,102.273,505.033,93.823z"/>
	<path display="inline" fill="#1D6A81" d="M315.863,157.442l-6.718,0.784c-2.325,0-4.479-1.045-6.47-3.135l-35.54-53.658
		l7.072-6.295c5.02-4.76,9.15-9.313,12.393-13.65c0.494-0.661,0.965-1.311,1.427-1.956l0.001,0c0.018-0.025,0.034-0.05,0.051-0.076
		c2.543-3.56,4.605-6.88,6.174-9.961c0.067-0.133,0.128-0.26,0.194-0.391c5.04-9.383,7.851-18.119,9.378-24.993
		c0.6-2.702,0.01-4.255-1.758-4.648c-1.773-0.394-3.682,0.604-5.733,2.985c-2.052,2.39-5.282,6.365-9.208,11.882
		c0,0-19.321,26.096-22.396,29.835c-2.79,3.392-9.638,10.039-13.432,13.538c0.878-11.719,2.125-24.111,3.746-37.194
		c2.651-21.424,4.02-35.402,4.105-41.935c0.082-6.532-1.12-9.797-3.608-9.797s-5.766,1.918-9.829,5.748
		c-4.067,3.833-6.345,6.532-6.843,8.1c-3.32,18.812-5.311,45.984-5.972,81.518c-0.167,6.446-0.914,17.028-2.24,31.745
		c-1.33,14.721-1.991,22.992-1.991,24.821c0,1.829,1.742,3.311,5.226,4.442c3.484,1.131,7.13,1.698,10.949,1.698
		c2.651,0,3.981-2.437,3.981-7.315l1.244-40.236c0.067-1.795,0.151-3.623,0.238-5.456c1.567-1.051,3.611-2.382,5.671-3.753
		c0.405,2.31,4.585,9.126,6.637,12.606c8.958,16.897,15.964,28.479,21.026,34.749c5.059,6.271,11.322,9.406,18.787,9.406
		c3.981,0,7.546-0.613,10.7-1.829c3.149-1.221,4.728-3.05,4.728-5.487C317.854,158.137,317.189,157.442,315.863,157.442z"/>
</g>
<g id="United_text" display="none">
	<g display="inline">
		<g>
			<path fill="#1D6A81" d="M53.672,170.155c-13.723,0-25.36-2.682-34.587-7.973c-9.583-5.494-14.442-13.945-14.442-25.119
				c0-6.015,1.991-11.536,5.917-16.409c4.029-5.002,9.828-7.538,17.234-7.538c3.072,0,5.895,0.919,8.392,2.733
				c2.573,1.873,4.177,4.4,4.771,7.515l0.035,0.186v0.189c0,3.706-2.422,5.919-6.479,5.919c-5.693,0-6.46,2.819-6.46,5.577
				c0.148,5.181,2.503,9.848,7.199,14.211c4.653,4.326,11.395,6.52,20.038,6.52c8.731,0,15.999-3.054,22.218-9.335
				c6.138-6.2,9.25-13.814,9.25-22.63c0-5.816-2.033-10.938-6.215-15.656c-4.311-4.86-9.581-9.073-15.664-12.52
				c-6.308-3.569-12.657-7.188-19.044-10.847c-6.554-3.753-12.214-8.382-16.823-13.759c-4.777-5.574-7.2-11.989-7.2-19.068
				c0-12.29,5.09-22.239,15.128-29.571c9.846-7.19,21.168-10.836,33.652-10.836c8.414,0,16.178,1.835,23.075,5.455
				c7.296,3.835,11.088,9.777,11.272,17.662c0,4.636-1.129,8.543-3.358,11.661c-2.376,3.329-5.646,5.017-9.714,5.017
				c-6.304,0-7.237-4.052-7.346-5.794l-0.015-0.244l1.242-6.779c-0.674-8.187-5.813-12.003-16.151-12.003
				c-6.137,0-11.328,2.241-15.869,6.85c-4.49,4.553-6.765,9.354-6.765,14.272c0,4.956,1.948,9.178,5.956,12.906
				c4.238,3.95,9.447,7.537,15.483,10.662c6.249,3.239,12.564,6.776,18.774,10.513c6.414,3.864,11.965,8.918,16.5,15.022
				c4.637,6.253,6.988,13.422,6.988,21.311c0,16.083-6.124,28.924-18.203,38.167C80.544,165.533,67.494,170.155,53.672,170.155z"/>
			<path fill="#F8F9F9" d="M70.592,13.742c8.126,0,15.509,1.743,22.146,5.226c6.633,3.486,10.035,8.798,10.202,15.938
				c0,4.18-0.995,7.667-2.986,10.451c-1.991,2.788-4.689,4.18-8.087,4.18c-3.402,0-5.187-1.306-5.35-3.919l1.244-6.793
				c-0.665-9.406-6.718-14.109-18.165-14.109c-6.637,0-12.403,2.482-17.294,7.446c-4.895,4.964-7.341,10.19-7.341,15.676
				c0,5.487,2.197,10.28,6.594,14.37c4.394,4.095,9.704,7.752,15.925,10.974c6.221,3.225,12.441,6.707,18.663,10.451
				c6.221,3.748,11.528,8.582,15.925,14.501c4.393,5.923,6.594,12.631,6.594,20.118c0,15.505-5.809,27.695-17.418,36.578
				c-11.614,8.883-24.137,13.325-37.574,13.325c-13.437,0-24.634-2.572-33.592-7.708c-8.958-5.135-13.437-12.933-13.437-23.384
				c0-5.572,1.823-10.623,5.474-15.154c3.647-4.527,8.873-6.793,15.677-6.793c2.652,0,5.058,0.784,7.216,2.351
				c2.154,1.568,3.484,3.658,3.981,6.271c0,2.612-1.493,3.919-4.479,3.919c-5.642,0-8.46,2.527-8.46,7.577
				c0.163,5.748,2.776,10.974,7.838,15.677c5.058,4.703,12.193,7.054,21.399,7.054c9.207,0,17.084-3.307,23.639-9.928
				c6.551-6.618,9.829-14.631,9.829-24.037c0-6.271-2.239-11.929-6.718-16.983c-4.479-5.05-9.872-9.361-16.174-12.933
				c-6.307-3.568-12.652-7.185-19.036-10.843c-6.388-3.658-11.82-8.1-16.299-13.325c-4.479-5.225-6.718-11.145-6.718-17.767
				c0-11.667,4.767-20.987,14.308-27.956C47.657,17.229,58.481,13.742,70.592,13.742 M70.592,9.742
				c-12.917,0-24.636,3.775-34.832,11.221c-10.583,7.73-15.948,18.222-15.948,31.187c0,7.57,2.584,14.423,7.681,20.37
				c4.758,5.551,10.595,10.326,17.348,14.193c6.865,3.933,13.098,7.483,19.054,10.853c5.888,3.337,10.986,7.411,15.151,12.106
				c3.843,4.335,5.711,9.022,5.711,14.329c0,8.387-2.836,15.329-8.671,21.223c-5.824,5.882-12.626,8.742-20.796,8.742
				c-8.122,0-14.405-2.013-18.676-5.984c-4.267-3.964-6.413-8.153-6.562-12.804c0.006-2.128,0.347-3.52,4.46-3.52
				c5.151,0,8.479-3.108,8.479-7.919v-0.377l-0.071-0.371c-0.691-3.63-2.561-6.576-5.557-8.756c-2.848-2.069-6.067-3.117-9.57-3.117
				c-8.041,0-14.364,2.787-18.792,8.284c-4.219,5.237-6.359,11.18-6.359,17.663c0,11.943,5.197,20.978,15.447,26.854
				c9.534,5.466,21.505,8.237,35.582,8.237c14.272,0,27.731-4.76,40.004-14.147c12.6-9.641,18.988-23.017,18.988-39.755
				c0-8.327-2.483-15.897-7.381-22.501c-4.693-6.317-10.437-11.546-17.074-15.544c-6.248-3.76-12.601-7.317-18.886-10.576
				c-5.876-3.042-10.935-6.524-15.039-10.349c-3.582-3.332-5.321-7.074-5.321-11.444c0-4.435,2.024-8.645,6.189-12.868
				c4.147-4.209,8.872-6.255,14.446-6.255c11.517,0,13.694,5.191,14.135,9.907l-1.149,6.274l-0.088,0.481l0.031,0.488
				c0.112,1.799,1.118,7.67,9.342,7.67c4.685,0,8.607-2.025,11.343-5.856c2.475-3.461,3.73-7.76,3.73-12.775v-0.047l-0.001-0.047
				c-0.2-8.543-4.467-15.247-12.34-19.385C87.41,11.654,79.333,9.742,70.592,9.742L70.592,9.742z"/>
		</g>
		<g>
			<path fill="#1D6A81" d="M403.515,168.849c-8.839,0-15.36-2.915-19.432-8.673c-5.548,7.149-10.28,8.673-15.9,8.673
				c-6.926,0-12.298-1.564-15.968-4.649l-0.083-0.07l-0.076-0.079c-1.588-1.662-2.296-4.949-2.296-10.657
				c0-2.578,0.044-5.61,0.132-9.069c-2.967,6.518-5.934,11.715-8.865,15.516c-4.609,5.978-10.625,9.009-17.882,9.009
				c-3.167,0-6.208-0.692-9.055-2.06c-0.079,0.033-0.159,0.064-0.24,0.096c-3.38,1.304-7.222,1.964-11.422,1.964
				c-8.066,0-14.911-3.415-20.344-10.15c-5.113-6.334-12.258-18.133-21.237-35.068l-0.742-1.247
				c-2.131-3.585-4.026-6.831-5.131-9.233c-0.25,0.166-2.104,1.387-2.718,1.794c-0.07,1.487-0.135,2.968-0.19,4.427l-1.244,40.224
				c0.001,7.637-3.251,9.253-5.98,9.253c-4.003,0-7.895-0.604-11.566-1.796c-4.385-1.423-6.608-3.558-6.608-6.344
				c0-0.226,0.009-0.534,0.026-0.928c-7.459,6.021-16.257,9.068-26.22,9.068c-10.108,0-17.903-3.85-23.167-11.442
				c-0.337-0.486-0.666-0.979-0.984-1.477c-5.768,9.244-10.659,12.918-16.902,12.918c-6.926,0-12.298-1.564-15.968-4.649
				l-0.084-0.07l-0.075-0.079c-0.171-0.179-0.331-0.383-0.478-0.614c-3.899,3.679-7.893,5.413-12.381,5.413
				c-10.101,0-15.519-1.312-17.566-4.254c-1.267-1.815-2.723-6.141-2.723-23.612c0-12.435,1.118-30.453,3.325-53.578
				c-8.096-2.083-12.474-6.141-13.021-12.08l-0.008-0.092v-0.092c0-1.858,0.704-6.18,7.226-6.18c2.721,0,5.247,0.402,7.54,1.198
				c1.418-11.66,3.07-23.609,4.916-35.559c0.553-3.678,2.309-7.192,5.215-10.436c3.036-3.389,6.132-5.107,9.203-5.107
				c5.234,0,5.234,9.235,5.234,12.712c0,3.273-1.066,17.404-3.258,43.164c3.599-0.942,7.524-2.439,11.708-4.466
				c4.352-2.11,8.192-3.34,10.333-3.788l0.119-0.021c0.492-0.072,0.905-0.105,1.3-0.105c0.923,0,1.619,0.182,2.582,0.435
				c1.684,0.441,3.263,1.226,3.582,1.389c3.318,1.525,4.735,5.039,4.735,11.729c0,1.864-0.458,5.313-1.4,10.544
				c-0.943,5.217-2.004,8.955-3.243,11.421c-2.037,5.571-3.07,20.507-3.07,44.398c0,2.629,0.164,4.049,0.31,4.793
				c1.287-0.58,3.632-2.342,7.441-7.475c-0.866-3.29-1.304-6.69-1.304-10.121c0-20.225,4.29-35.894,12.75-46.573
				c8.574-10.818,19.608-16.304,32.796-16.304c5.805,0,10.493,1.632,13.933,4.851c1.002,0.938,1.861,1.921,2.577,2.946
				c1.005-23.392,2.758-42.271,5.235-56.309l0.023-0.131l0.04-0.126c0.421-1.326,1.64-3.542,7.377-8.95
				c4.493-4.234,8.157-6.292,11.201-6.292c1.22,0,2.322,0.463,3.188,1.34c1.718,1.74,2.487,5.071,2.42,10.482
				c-0.086,6.574-1.473,20.757-4.121,42.155c-1.37,11.054-2.487,21.769-3.329,31.931c3.556-3.424,7.575-7.467,9.485-9.79
				c3.008-3.658,22.141-29.495,22.333-29.755c3.995-5.614,7.263-9.625,9.298-11.995c2.184-2.535,4.306-3.766,6.49-3.766
				c0.401,0,0.803,0.044,1.195,0.131c1.386,0.308,4.48,1.61,3.277,7.033c-1.933,8.704-5.152,17.285-9.569,25.506l-0.172,0.35
				c-1.599,3.139-3.729,6.576-6.331,10.219c-0.525,0.735-1.004,1.394-1.505,2.065c-3.303,4.418-7.548,9.096-12.619,13.905
				l-5.824,5.185l28.365,42.825c-1.24-5.25-1.864-11.387-1.864-18.378c0-14.375,3.931-27.288,11.683-38.377
				c7.908-11.315,18.464-17.053,31.375-17.053c5.502,0,11.34,3.25,17.798,9.922c1.449-1.62,3.421-3.417,5.966-5.438
				c3.8-3.017,7.055-4.484,9.953-4.484c5.13,0,5.567,7.515,5.604,11.053c0.431-3.791,0.932-7.523,1.5-11.188
				c2.336-15.073,5.396-27.144,9.093-35.876c3.705-8.76,7.62-15.612,11.636-20.368c4.278-5.065,8.517-7.633,12.601-7.633
				c3.515,0,5.393,4.355,6.499,7.631c1.473,4.376,2.22,9.777,2.22,16.055c0,12.612-2.061,27.384-6.13,43.958
				c2.663-0.677,5.71-1.019,9.107-1.019c8.206,0,15.081,3.181,20.433,9.455c5.262,6.172,8.018,14.817,8.191,25.695l-0.002,0.135
				l-0.501,9.744l-0.01,0.076c-2.047,15.941-8.307,28.455-18.605,37.195C424.395,164.425,413.913,168.849,403.515,168.849z
				 M400.054,118.467c0.337,12.733,1.311,21.966,2.894,27.447c2.069,7.177,5.059,7.177,6.042,7.177
				c5.259,0,10.537-2.415,15.688-7.176c5.146-4.756,8.402-12.688,9.681-23.575c-0.204-8.47-1.123-23.875-3.297-28.595
				c-2.152-4.667-5.383-6.937-9.878-6.937c-1.768,0-3.125,0.523-4.15,1.6c-1.527,1.603-10.724,14.672-11.269,17.126v0.282
				l-0.131,0.344C404.018,110.399,402.142,114.537,400.054,118.467z M135.423,86.962c-1.901,24.542-2.865,43.413-2.865,56.111
				c0,6.302,0.853,8.023,1.138,8.422c1.13-0.2,3.41-1.369,7.351-6.316c0.156-7.664,0.684-18.824,1.571-33.19
				c1.19-19.342,2.028-25.547,2.598-27.833C142.047,85.251,138.775,86.189,135.423,86.962z M211.92,83.151
				c-5.262,0-10.009,4.489-14.111,13.342c-4.335,9.357-6.533,18.436-6.533,26.984c0,8.457,1.653,15.348,4.914,20.483
				c3.12,4.914,6.759,7.302,11.126,7.302c4.666,0,8.877-1.131,12.516-3.363c2.963-1.814,5.789-4.31,8.407-7.425l0.427-4.767
				c1.315-14.605,2.066-25.243,2.232-31.617c0.01-0.526,0.02-1.048,0.03-1.57c-0.146,0.233-0.296,0.46-0.451,0.681
				c-2.709,3.859-6.107,5.815-10.097,5.815c-3.959,0-6.23-2.539-6.23-6.964v-0.148l1.989-13.316
				c-0.027-1.43-0.469-2.707-1.349-3.897C214.012,83.641,213.1,83.151,211.92,83.151z M374.002,104.677
				c-0.957,2.723-2.078,12.225-2.078,41.792c0,2.627,0.163,4.047,0.31,4.792c1.161-0.524,3.2-2.018,6.413-6.122
				c-1.336-7.085-2.014-16.036-2.014-26.625c0-9.85,0.408-19.474,1.216-28.779c-0.173,1.071-0.375,2.247-0.606,3.529
				C376.3,98.475,375.24,102.211,374.002,104.677z M337.825,85.241c-3.943,0-8.379,3.37-13.185,10.015
				c-4.949,6.848-7.459,15.024-7.459,24.302c0,9.432,1.325,17.25,3.939,23.237c2.41,5.522,5.351,8.206,8.991,8.206
				c1.596,0,7.907-3.004,22.177-41.577c0.16-1.425,0.362-3.788,0.587-6.864c0.227-3.093,0.413-5.434,0.567-7.123
				c-1.379-2.31-3.701-4.579-6.909-6.751C343.151,86.4,340.221,85.241,337.825,85.241z M411.412,26.775
				c-0.625,1.028-1.764,3.495-3.354,9.312c-2.038,7.436-3.945,17.721-5.67,30.569c-1.104,8.224-1.859,16.469-2.259,24.639
				c8.025-25.537,12.087-44.384,12.087-56.127C412.215,30.067,411.757,27.777,411.412,26.775z"/>
			<path fill="#F8F9F9" d="M413.469,8.778c1.656,0,3.192,2.09,4.604,6.271c1.407,4.18,2.115,9.32,2.115,15.415
				c0,13.415-2.325,29.091-6.967,47.029c3.149-1.392,7.131-2.09,11.944-2.09c7.628,0,13.935,2.919,18.912,8.753
				c4.977,5.838,7.546,13.978,7.713,24.429l-0.498,9.667c-1.991,15.505-7.962,27.479-17.916,35.925
				c-9.954,8.451-19.907,12.672-29.86,12.672c-9.361,0-15.787-3.429-19.278-10.287c-5.867,8.579-10.411,10.287-16.055,10.287
				c-6.47,0-11.365-1.392-14.681-4.18c-1.163-1.217-1.742-4.311-1.742-9.275s0.164-11.626,0.498-19.987
				c-4.316,11.324-8.585,19.726-12.815,25.213c-4.23,5.487-9.666,8.23-16.298,8.23c-3.193,0-6.192-0.764-9-2.276
				c-0.32,0.156-0.656,0.307-1.018,0.447c-3.153,1.216-6.719,1.829-10.7,1.829c-7.465,0-13.729-3.135-18.787-9.406
				c-5.062-6.271-12.068-17.852-21.026-34.749c-2.052-3.479-6.232-10.296-6.637-12.606c-2.06,1.372-4.104,2.703-5.671,3.753
				c-0.087,1.833-0.171,3.661-0.238,5.456l-1.244,40.236c0,4.878-1.33,7.315-3.981,7.315c-3.818,0-7.465-0.567-10.949-1.698
				c-3.483-1.131-5.226-2.613-5.226-4.442c0-0.768,0.118-2.685,0.352-5.722c-7.84,7.901-17.349,11.862-28.545,11.862
				c-9.456,0-16.633-3.527-21.524-10.582c-0.97-1.398-1.84-2.815-2.617-4.25c-6.274,10.905-11.054,14.832-16.913,14.832
				c-6.47,0-11.365-1.392-14.681-4.18c-0.465-0.487-0.835-1.484-1.114-2.976c-4.616,5.314-8.76,7.156-13.191,7.156
				c-9.043,0-14.351-1.135-15.925-3.396c-1.579-2.262-2.364-9.753-2.364-22.47c0-12.712,1.159-31.091,3.483-55.128
				c-8.293-1.739-12.69-5.312-13.188-10.712c0-2.784,1.742-4.18,5.226-4.18c3.483,0,6.551,0.698,9.207,2.09
				c1.493-12.541,3.235-25.253,5.226-38.146c0.498-3.307,2.072-6.442,4.728-9.406c2.651-2.959,5.225-4.441,7.714-4.441
				c2.154,0,3.234,3.572,3.234,10.712c0,3.311-1.162,18.551-3.483,45.723c4.479-0.87,9.413-2.613,14.806-5.226
				c4.39-2.128,8.106-3.261,9.871-3.63c0.393-0.058,0.715-0.084,1.01-0.084c0.675,0,1.206,0.141,2.112,0.379
				c1.609,0.422,3.179,1.245,3.179,1.245c2.19,0.988,3.608,3.311,3.608,9.929c0,1.743-0.459,5.14-1.369,10.189
				c-0.914,5.054-1.952,8.712-3.11,10.974c-2.158,5.748-3.235,20.816-3.235,45.2c0,4.703,0.498,7.055,1.493,7.055
				c2.578-0.157,6.062-3.276,10.444-9.336c-0.99-3.41-1.489-6.917-1.489-10.521c0-19.857,4.106-34.966,12.317-45.331
				c8.211-10.361,18.62-15.546,31.228-15.546c5.308,0,9.495,1.437,12.566,4.311c3.067,2.874,4.604,6.14,4.604,9.798
				c0,6.793-1.163,11.847-3.484,15.154c-2.325,3.311-5.144,4.964-8.46,4.964c-2.823,0-4.23-1.653-4.23-4.964l1.991-13.325
				c0-1.915-0.583-3.658-1.742-5.226c-1.163-1.568-2.656-2.352-4.479-2.352c-6.139,0-11.446,4.833-15.925,14.501
				c-4.479,9.667-6.719,18.942-6.719,27.825s1.742,16.068,5.226,21.555s7.753,8.23,12.815,8.23c5.058,0,9.58-1.216,13.562-3.658
				c3.333-2.041,6.429-4.824,9.298-8.332c0.149-1.688,0.31-3.48,0.482-5.385c1.326-14.717,2.072-25.298,2.24-31.745
				c0.661-35.533,2.651-62.706,5.972-81.518c0.498-1.567,2.776-4.266,6.843-8.1c4.063-3.829,7.341-5.748,9.829-5.748
				s3.689,3.266,3.608,9.797c-0.085,6.532-1.454,20.51-4.105,41.935c-1.622,13.083-2.868,25.476-3.746,37.194
				c3.794-3.499,10.642-10.146,13.432-13.538c3.075-3.739,22.396-29.835,22.396-29.835c3.926-5.517,7.156-9.492,9.208-11.882
				c1.761-2.044,3.417-3.069,4.972-3.069c0.256,0,0.51,0.028,0.761,0.083c1.769,0.393,2.358,1.946,1.758,4.648
				c-1.527,6.875-4.338,15.61-9.378,24.993c-0.066,0.131-0.126,0.258-0.194,0.391c-1.569,3.081-3.631,6.401-6.174,9.961
				c-0.018,0.025-0.034,0.05-0.051,0.076l-0.001,0c-0.462,0.645-0.934,1.295-1.427,1.956c-3.243,4.337-7.374,8.89-12.393,13.65
				l-7.072,6.295l35.54,53.658c1.111,1.166,2.274,1.995,3.488,2.51c-0.146-0.184-0.293-0.361-0.438-0.551
				c-4.977-6.532-7.465-16.807-7.465-30.83c0-14.019,3.771-26.43,11.322-37.231c7.546-10.798,17.457-16.199,29.735-16.199
				c5.307,0,11.279,3.658,17.916,10.974c1.326-1.915,3.689-4.221,7.092-6.924c3.398-2.698,6.302-4.05,8.709-4.05
				c2.403,0,3.608,3.311,3.608,9.928c0,1.744-0.458,5.14-1.369,10.19c-0.914,5.054-1.952,8.712-3.11,10.974
				c-1.493,4.009-2.239,18.203-2.239,42.587c0,4.703,0.498,7.055,1.493,7.055c2.362-0.144,5.487-2.778,9.366-7.88
				c-1.431-7.113-2.15-16.149-2.15-27.131c0-16.722,1.159-32.569,3.483-47.552c2.321-14.979,5.307-26.781,8.958-35.403
				c3.647-8.622,7.422-15.239,11.322-19.857C406.292,11.089,409.985,8.778,413.469,8.778 M397.792,104.927
				c10.948-32.569,16.423-55.823,16.423-69.76c0-7.315-0.914-10.973-2.737-10.973c-1.493,0-3.277,3.789-5.35,11.365
				c-2.076,7.577-3.981,17.856-5.724,30.831C398.663,79.367,397.792,92.214,397.792,104.927 M133.544,153.524
				c2.478-0.143,5.643-2.693,9.49-7.635c0.137-7.642,0.661-18.894,1.58-33.777c1.077-17.505,2.029-26.952,2.861-28.348
				c0.517-0.869,1.714-2.215,3.591-4.037c-5.484,2.401-11.322,4.272-17.522,5.604c-1.991,25.433-2.986,44.678-2.986,57.741
				C130.558,150.042,131.553,153.524,133.544,153.524 M330.111,153.001c5.475,0,13.519-14.37,24.137-43.11
				c0.164-1.392,0.374-3.789,0.622-7.185c0.249-3.396,0.455-5.964,0.622-7.708c-1.493-2.784-4.105-5.442-7.838-7.969
				c-3.732-2.523-7.01-3.789-9.829-3.789c-4.646,0-9.58,3.617-14.805,10.843c-5.226,7.23-7.838,15.721-7.838,25.474
				c0,9.757,1.369,17.767,4.106,24.037C322.024,149.866,325.632,153.001,330.111,153.001 M408.99,155.091
				c5.805,0,11.485-2.568,17.045-7.708c5.556-5.136,8.997-13.456,10.327-24.952c-0.167-7.14-0.996-24.123-3.484-29.524
				c-2.488-5.397-6.388-8.1-11.695-8.1c-2.325,0-4.191,0.743-5.599,2.221c-1.412,1.482-11.82,15.982-11.82,18.419
				c-1.66,4.356-3.569,8.537-5.723,12.542c0.331,13.239,1.326,22.73,2.986,28.479C402.684,152.217,405.339,155.091,408.99,155.091
				 M413.469,4.778c-4.766,0-9.388,2.729-14.129,8.342c-4.146,4.909-8.166,11.934-11.95,20.88
				c-3.761,8.882-6.866,21.112-9.227,36.348c-0.045,0.292-0.09,0.583-0.134,0.875c-1.738-2.147-3.945-2.434-4.994-2.434
				c-3.367,0-7.03,1.608-11.196,4.917c-1.868,1.483-3.446,2.859-4.752,4.146c-6.295-6.092-12.135-9.064-17.768-9.064
				c-13.602,0-24.709,6.025-33.014,17.908c-7.991,11.432-12.043,24.729-12.043,39.523c0,3.393,0.137,6.573,0.414,9.548
				l-22.29-33.653l4.482-3.989l0.047-0.042l0.046-0.043c4.983-4.725,9.188-9.335,12.507-13.71l0.084,0.031l1.768-2.554l0.016-0.023
				l0.028-0.042c2.647-3.709,4.819-7.219,6.456-10.431l0.133-0.268l0.051-0.104c4.487-8.365,7.76-17.1,9.728-25.961
				c1.303-5.87-1.623-8.715-4.795-9.42c-0.534-0.119-1.082-0.179-1.628-0.179c-2.763,0-5.455,1.5-8.004,4.458
				c-2.062,2.403-5.364,6.454-9.414,12.143c-0.754,1.019-19.319,26.082-22.249,29.645c-1.193,1.45-3.241,3.6-5.48,5.845
				c0.771-8.512,1.727-17.375,2.854-26.469c2.694-21.774,4.047-35.634,4.135-42.375c0.076-6.066-0.848-9.74-2.997-11.916
				c-1.25-1.265-2.844-1.934-4.611-1.934c-3.628,0-7.624,2.172-12.572,6.836c-6.037,5.69-7.387,8.147-7.912,9.8l-0.081,0.253
				l-0.046,0.262c-2.319,13.139-4.006,30.471-5.042,51.742c-3.761-3.241-8.712-4.882-14.733-4.882
				c-13.83,0-25.391,5.74-34.363,17.062c-8.748,11.042-13.183,27.129-13.183,47.815c0,3.274,0.38,6.521,1.132,9.68
				c-1.459,1.911-2.641,3.233-3.57,4.147c-0.006-0.316-0.009-0.657-0.009-1.025c0-29.152,1.568-39.824,2.913-43.611
				c1.302-2.64,2.405-6.521,3.369-11.852c0.978-5.426,1.433-8.889,1.433-10.901c0-5.034-0.669-11.108-5.857-13.526
				c-0.46-0.234-2.121-1.046-3.916-1.517c-1.061-0.278-1.945-0.51-3.126-0.51c-0.495,0-1,0.04-1.591,0.127l-0.119,0.018
				l-0.118,0.024c-2.259,0.472-6.282,1.756-10.798,3.946c-3.021,1.463-5.895,2.64-8.595,3.521
				c2.029-23.975,3.018-37.218,3.018-40.419c0-4.024,0-14.712-7.234-14.712c-3.664,0-7.262,1.942-10.693,5.772
				c-3.171,3.539-5.09,7.402-5.704,11.48c-1.724,11.165-3.281,22.342-4.637,33.285c-1.84-0.422-3.791-0.634-5.84-0.634
				c-6.802,0-9.226,4.226-9.226,8.18v0.184l0.017,0.183c0.705,7.648,6.795,11.461,12.866,13.359
				c-2.109,22.395-3.178,39.916-3.178,52.115c0,17.924,1.559,22.574,3.083,24.759c2.492,3.579,8.236,5.107,19.206,5.107
				c4.466,0,8.46-1.5,12.294-4.665c4.009,3.096,9.62,4.665,16.692,4.665c6.303,0,11.441-3.359,16.939-11.336
				c5.639,7.523,13.746,11.336,24.115,11.336c9.246,0,17.534-2.506,24.738-7.465c0.867,2.007,2.944,4.11,7.445,5.571
				c3.872,1.256,7.971,1.894,12.184,1.894c2.395,0,7.957-1.098,7.981-11.25l1.242-40.178c0.041-1.092,0.088-2.207,0.14-3.331
				c1.026,1.948,2.413,4.344,4.18,7.315c0.265,0.445,0.513,0.863,0.737,1.242c9.145,17.244,16.147,28.793,21.406,35.308
				c5.831,7.228,13.199,10.894,21.899,10.894c4.224,0,8.121-0.636,11.592-1.893c2.887,1.257,5.948,1.893,9.125,1.893
				c7.909,0,14.458-3.293,19.466-9.788c1.731-2.245,3.443-4.894,5.149-7.972c0,0.102,0,0.203,0,0.304
				c0,6.347,0.853,9.948,2.85,12.039l0.151,0.158l0.167,0.141c4.04,3.396,9.846,5.118,17.255,5.118
				c6.423,0,11.185-2.169,15.873-7.491c4.467,4.977,10.986,7.491,19.46,7.491c10.885,0,21.802-4.583,32.449-13.623
				c10.69-9.072,17.182-22.013,19.294-38.465l0.02-0.151l0.008-0.152l0.498-9.667l0.007-0.135l-0.002-0.135
				c-0.182-11.354-3.098-20.425-8.669-26.959c-5.75-6.741-13.137-10.158-21.956-10.158c-2.292,0-4.44,0.15-6.434,0.449
				c3.623-15.5,5.458-29.398,5.458-41.388c0-6.495-0.782-12.111-2.324-16.691C421.032,11.31,418.826,4.778,413.469,4.778
				L413.469,4.778z M403.747,71.88c0.193-1.653,0.401-3.307,0.623-4.959c1.713-12.76,3.604-22.957,5.617-30.306
				c0.076-0.279,0.151-0.549,0.225-0.812C410.106,44.251,407.94,56.325,403.747,71.88L403.747,71.88z M207.317,149.262
				c-3.627,0-6.715-2.085-9.438-6.374c-3.054-4.81-4.603-11.34-4.603-19.411c0-8.256,2.136-17.052,6.348-26.144
				c3.745-8.084,7.882-12.183,12.296-12.183c0.395,0,0.763,0.055,1.266,0.734c0.597,0.808,0.902,1.637,0.948,2.587l-1.94,12.99
				l-0.044,0.293v0.297c0,6.609,4.251,8.964,8.23,8.964c2.321,0,5.387-0.602,8.367-3.006c-0.31,6.421-1.004,15.653-2.073,27.518
				c-0.13,1.441-0.254,2.818-0.371,4.134c-2.363,2.728-4.886,4.921-7.513,6.53C215.421,148.259,211.669,149.262,207.317,149.262
				L207.317,149.262z M137.305,88.57c1.812-0.446,3.599-0.939,5.359-1.479c-0.547,3.976-1.207,11.187-2.043,24.775
				c-0.862,13.972-1.386,24.923-1.559,32.587c-1.854,2.266-3.222,3.522-4.157,4.217c-0.181-1.105-0.347-2.865-0.347-5.598
				C134.558,130.678,135.482,112.351,137.305,88.57L137.305,88.57z M330.021,149.001c-1.097-0.005-4.096-0.196-7.068-7.006
				c-2.503-5.733-3.772-13.282-3.772-22.437c0-8.849,2.382-16.631,7.08-23.131c4.345-6.009,8.344-9.186,11.563-9.186
				c1.962,0,4.586,1.073,7.589,3.103c2.71,1.835,4.716,3.711,5.976,5.59c-0.143,1.633-0.311,3.771-0.509,6.48
				c-0.256,3.5-0.437,5.461-0.554,6.547C336.754,145.593,330.837,148.736,330.021,149.001L330.021,149.001z M407.764,105.867
				c1.11-2.879,9.238-14.458,10.728-16.09c0.423-0.444,1.123-0.968,2.69-0.968c3.734,0,6.221,1.781,8.062,5.774
				c1.69,3.667,2.839,16.636,3.111,27.663c-1.232,10.328-4.272,17.797-9.036,22.201c-4.837,4.472-9.524,6.645-14.33,6.645
				c-2.04,0-3.366-3.116-4.119-5.73c-1.516-5.247-2.458-14.133-2.803-26.424c2.028-3.864,3.854-7.917,5.435-12.064l0.262-0.688
				V105.867L407.764,105.867z M373.934,147.494c-0.006-0.315-0.009-0.656-0.009-1.024c0-15.757,0.318-25.598,0.728-31.734
				c-0.013,1.256-0.02,2.515-0.02,3.778c0,10.269,0.633,19.033,1.884,26.092C375.5,145.859,374.644,146.795,373.934,147.494
				L373.934,147.494z"/>
		</g>
		<g>
			<path fill="#1D6A81" d="M511.751,168.849c-9.476,0-17.194-3.66-22.961-10.882c-6.578,10.079-11.423,10.882-17.844,10.882
				c-3.826,0-7.417-0.514-10.673-1.527c-3.609-1.123-5.645-2.185-6.599-3.446c-1.417-1.783-2.894-7.218-2.894-33.736
				c0-19.595,2.098-46.532,6.236-80.064c3.614-28.731,12.486-43.297,26.371-43.297c2.664,0,6.272,1.104,8.332,6.365
				c1.412,3.619,2.128,7.16,2.128,10.527c0,22.729-6.619,48.467-19.672,76.506c-0.485,14.193-0.731,26.733-0.731,37.278
				c0,9.823,0.79,12.967,1.208,13.943c1.108-0.379,3.298-1.776,7.003-6.573c-1.501-4.491-2.261-9.293-2.261-14.294
				c0-19.354,3.994-34.273,11.871-44.343c7.992-10.218,18.485-15.399,31.186-15.399c6.112,0,11.246,1.794,15.258,5.333
				c4.083,3.61,6.151,8.554,6.151,14.694c0,11.017-4.467,20.366-13.278,27.788c-8.183,6.89-18.188,10.744-29.768,11.473
				c0.84,5.521,2.834,10.403,5.941,14.535c3.363,4.474,7.114,6.648,11.465,6.648c4.583,0,8.753-1.131,12.392-3.363
				c3.738-2.288,7.229-5.628,10.38-9.928c6.835-9.396,12.784-20.242,17.678-32.233c1.342-3.174,2.415-5.515,3.198-6.98
				c1.12-2.089,2.55-3.147,4.252-3.147c1.628,0,3.369,1.074,3.369,4.09c0,9.152-5.054,22.3-15.449,40.196
				C542.754,159.111,528.528,168.849,511.751,168.849z M519.713,83.151c-4.937,0-9.267,3.877-12.872,11.524
				c-3.521,7.473-5.589,15.797-6.16,24.779c8.057-1.748,14.086-4.716,17.944-8.84c4.183-4.47,6.303-10.428,6.303-17.707
				C524.93,83.151,521.14,83.151,519.713,83.151z M483.179,20.18c-0.846,1.145-2.563,4.698-4.285,15.568
				c-1.257,7.941-2.361,18.708-3.296,32.125c5.333-17.038,8.028-31.073,8.028-41.851C483.626,22.753,483.388,21.047,483.179,20.18z"
				/>
			<path fill="#F8F9F9" d="M483.387,8.778c2.986,0,5.14,1.698,6.47,5.095c1.326,3.396,1.99,6.663,1.99,9.798
				c0,22.645-6.555,47.988-19.657,76.03c-0.498,14.46-0.747,27.042-0.747,37.754c0,10.712,0.91,16.068,2.737,16.068
				c2.434-0.148,5.674-2.934,9.716-8.343c-1.666-4.579-2.503-9.461-2.503-14.649c0-18.983,3.814-33.354,11.446-43.11
				c7.628-9.753,17.5-14.631,29.611-14.631c5.638,0,10.284,1.613,13.935,4.833c3.647,3.225,5.475,7.622,5.475,13.194
				c0,10.451-4.191,19.204-12.566,26.258c-8.378,7.054-18.624,10.757-30.73,11.104c0.661,6.793,2.861,12.672,6.594,17.636
				c3.732,4.964,8.087,7.446,13.064,7.446s9.456-1.216,13.437-3.658c3.981-2.437,7.628-5.919,10.948-10.451
				c6.967-9.578,12.939-20.465,17.916-32.659c1.326-3.135,2.364-5.397,3.11-6.793c0.747-1.392,1.575-2.09,2.488-2.09
				c0.91,0,1.369,0.698,1.369,2.09c0,8.712-5.062,21.776-15.179,39.191c-10.949,18.64-24.471,27.956-40.56,27.956
				c-9.292,0-16.672-3.699-22.146-11.104c-0.329-0.444-0.646-0.893-0.955-1.344c-6.882,11.606-11.211,12.448-17.705,12.448
				c-3.651,0-7.01-0.482-10.078-1.437c-3.071-0.955-4.938-1.87-5.599-2.743c-1.66-2.09-2.488-12.933-2.488-32.529
				c0-19.595,2.072-46.201,6.221-79.819C462.485,22.625,470.611,8.778,483.387,8.778 M472.688,82.718
				c8.624-23.861,12.939-42.759,12.939-56.696c0-5.572-0.665-8.36-1.99-8.36C478.659,17.662,475.008,39.347,472.688,82.718
				 M498.563,121.91c9.786-1.739,16.959-5.05,21.524-9.929c4.561-4.874,6.843-11.234,6.843-19.073s-2.407-11.757-7.216-11.757
				c-5.809,0-10.7,4.226-14.681,12.672C501.051,102.273,498.893,111.634,498.563,121.91 M483.387,4.778
				c-7.877,0-14.312,4.159-19.127,12.361c-4.382,7.465-7.4,18.155-9.228,32.683c-4.149,33.622-6.252,60.642-6.252,80.318
				c0,28.271,1.642,32.833,3.331,34.984c1.246,1.616,3.515,2.847,7.568,4.107c3.447,1.073,7.238,1.618,11.266,1.618
				c7.274,0,12.229-1.565,18.029-9.605c5.94,6.377,13.584,9.605,22.776,9.605c17.537,0,32.343-10.07,44.009-29.93
				c10.587-18.226,15.729-31.703,15.729-41.217c0-2.933-1.68-6.09-5.369-6.09c-1.716,0-4.152,0.729-6.013,4.199
				c-0.826,1.544-1.895,3.874-3.27,7.126l-0.01,0.023l-0.01,0.023c-4.833,11.841-10.703,22.546-17.447,31.817
				c-2.988,4.078-6.289,7.241-9.802,9.392c-3.369,2.066-7.08,3.069-11.349,3.069c-3.68,0-6.907-1.914-9.867-5.85
				c-2.504-3.33-4.236-7.19-5.174-11.518c11.071-1.09,20.705-5.036,28.689-11.758c9.284-7.82,13.99-17.684,13.99-29.318
				c0-6.739-2.296-12.186-6.825-16.191c-4.392-3.874-9.97-5.837-16.584-5.837c-13.348,0-24.371,5.439-32.762,16.167
				c-8.159,10.43-12.295,25.763-12.295,45.575c0,4.835,0.683,9.499,2.032,13.894c-1.461,1.823-2.603,2.997-3.458,3.752
				c-0.267-1.915-0.524-5.194-0.524-10.722c0-10.422,0.241-22.801,0.716-36.804c13.064-28.162,19.688-54.059,19.688-76.98
				c0-3.618-0.762-7.403-2.264-11.252C490.979,5.771,486.078,4.778,483.387,4.778L483.387,4.778z M479.943,42.653
				c0.198-1.573,0.399-3.066,0.606-4.479c0.201-1.378,0.402-2.645,0.601-3.81C480.87,36.98,480.467,39.744,479.943,42.653
				L479.943,42.653z M502.9,116.863c0.769-7.692,2.696-14.85,5.751-21.335c3.245-6.885,6.967-10.376,11.062-10.376
				c0.88,0,3.216,0,3.216,7.757c0,6.85-1.885,12.195-5.764,16.34C514.014,112.618,509.228,115.169,502.9,116.863L502.9,116.863z"/>
		</g>
	</g>
</g>
<g id="Strokable_sticker" display="none">
	<linearGradient id="SVGID_1_" gradientUnits="userSpaceOnUse" x1="171.7812" y1="38.7007" x2="171.7812" y2="38.7007">
		<stop  offset="0" style="stop-color:#FFFFFF"/>
		<stop  offset="1" style="stop-color:#EFEFEF"/>
	</linearGradient>
	
		<line display="inline" fill="none" stroke="url(#SVGID_1_)" stroke-miterlimit="10" x1="171.781" y1="38.701" x2="171.781" y2="38.701"/>
	<g display="inline">
		<path fill="#5960AB" stroke="#F8F9F9" stroke-width="7" stroke-miterlimit="10" d="M168.155,31.211
			c-0.221-0.287-0.818-0.629-1.624-0.791c-0.933-0.187-1.896-0.342-2.714-0.342c-7.762,0-14.053,6.292-14.053,14.053
			c0,7.76,6.292,14.052,14.053,14.052c6.586,0,12.104-4.535,13.624-10.65c0.186-0.749,0.304-1.523-0.108-2.2
			C174.875,41.292,170.936,34.822,168.155,31.211z"/>
	</g>
</g>
<g id="Sticker" display="none">
	<g display="inline">
		<path fill="#57445E" d="M175.949,45.44c-5.05-0.053-5.396-4.793-5.692-8.275l-0.508-3.8l-0.238-0.354
			c-0.981-1.796-2.416-2.721-4.514-2.913c-7.738-0.707-14.611,5.014-15.318,12.752c-0.707,7.739,5.014,14.611,12.752,15.318
			c5.191,0.474,10.197-1.938,13.065-6.298c0.93-1.412,1.597-2.994,1.968-4.648c0.001-0.007,0.003-0.014,0.004-0.021l0.289-1.887
			C177.757,45.313,176.402,45.445,175.949,45.44z"/>
		<path fill="#F9F9FA" d="M175.949,45.44c0.453,0.005,1.808-0.126,1.808-0.126l-8.009-11.949l0.508,3.8
			C170.552,40.647,170.899,45.387,175.949,45.44z"/>
	</g>
</g>
<g id="White_sticker">
	<g>
		<path fill="#F8F9F9" d="M175.949,45.44c-5.05-0.053-5.396-4.793-5.692-8.275l-0.508-3.8l-0.238-0.354
			c-0.981-1.796-2.416-2.721-4.514-2.913c-7.738-0.707-14.611,5.014-15.318,12.752c-0.707,7.739,5.014,14.611,12.752,15.318
			c5.191,0.474,10.197-1.938,13.065-6.298c0.93-1.412,1.597-2.994,1.968-4.648c0.001-0.007,0.003-0.014,0.004-0.021l0.289-1.887
			C177.757,45.313,176.402,45.445,175.949,45.44z"/>
	</g>
</g>
<g id="United_white_text">
	<g>
		<g>
			<path fill="#F8F9F9" d="M86.145,83.633c-6.221-3.744-12.442-7.226-18.663-10.451c-6.221-3.221-11.532-6.879-15.925-10.974
				c-4.397-4.09-6.594-8.883-6.594-14.37c0-5.486,2.446-10.712,7.341-15.676c4.891-4.964,10.657-7.446,17.294-7.446
				c11.446,0,17.5,4.703,18.165,14.109l-1.244,6.793c0.163,2.613,1.948,3.919,5.35,3.919c3.398,0,6.097-1.392,8.087-4.18
				c1.991-2.784,2.986-6.271,2.986-10.451c-0.167-7.14-3.569-12.452-10.202-15.938c-6.637-3.482-14.02-5.226-22.146-5.226
				c-12.111,0-22.935,3.486-32.473,10.451c-9.541,6.969-14.308,16.289-14.308,27.956c0,6.622,2.24,12.542,6.718,17.767
				c4.479,5.226,9.911,9.667,16.299,13.325c6.384,3.658,12.729,7.275,19.036,10.843c6.302,3.572,11.695,7.883,16.174,12.933
				c4.479,5.054,6.718,10.712,6.718,16.983c0,9.406-3.277,17.419-9.829,24.037c-6.555,6.622-14.432,9.928-23.639,9.928
				c-9.207,0-16.341-2.352-21.399-7.054c-5.062-4.703-7.675-9.929-7.838-15.677c0-5.05,2.819-7.577,8.46-7.577
				c2.986,0,4.479-1.307,4.479-3.919c-0.498-2.613-1.827-4.703-3.981-6.271c-2.158-1.567-4.564-2.351-7.216-2.351
				c-6.804,0-12.03,2.266-15.677,6.793c-3.651,4.531-5.474,9.582-5.474,15.154c0,10.451,4.479,18.249,13.437,23.384
				c8.958,5.136,20.156,7.708,33.592,7.708c13.437,0,25.96-4.441,37.574-13.325c11.609-8.883,17.418-21.073,17.418-36.578
				c0-7.487-2.201-14.195-6.594-20.118C97.672,92.214,92.365,87.38,86.145,83.633z"/>
		</g>
		<g>
			<path fill="#F8F9F9" d="M162.088,68.932c-1.302-0.341-1.828-0.484-3.122-0.294c-1.765,0.369-5.481,1.501-9.871,3.63
				c-5.393,2.613-10.327,4.356-14.806,5.226c2.321-27.172,3.483-42.412,3.483-45.723c0-7.14-1.081-10.712-3.234-10.712
				c-2.489,0-5.062,1.482-7.714,4.441c-2.656,2.964-4.23,6.099-4.728,9.406c-1.991,12.892-3.732,25.604-5.226,38.146
				c-2.655-1.392-5.723-2.09-9.207-2.09c-3.484,0-5.226,1.396-5.226,4.18c0.498,5.401,4.895,8.973,13.188,10.712
				c-2.325,24.037-3.483,42.416-3.483,55.128c0,12.717,0.785,20.208,2.364,22.47c1.575,2.262,6.882,3.396,15.925,3.396
				c4.431,0,8.575-1.841,13.191-7.156c0.279,1.491,0.649,2.489,1.114,2.976c3.316,2.788,8.211,4.18,14.681,4.18
				c5.859,0,10.639-3.927,16.913-14.832c0.777,1.436,1.647,2.853,2.617,4.25c4.891,7.054,12.068,10.582,21.524,10.582
				c11.196,0,20.705-3.961,28.545-11.862c-0.233,3.037-0.352,4.955-0.352,5.722c0,1.829,1.742,3.311,5.226,4.442
				c3.484,1.131,7.13,1.698,10.949,1.698c2.651,0,3.981-2.437,3.981-7.315l1.244-40.236c0.067-1.795,0.151-3.623,0.238-5.456
				c1.567-1.051,3.611-2.382,5.671-3.753c0.405,2.31,4.585,9.126,6.637,12.606c8.958,16.897,15.964,28.479,21.026,34.749
				c5.059,6.271,11.322,9.406,18.787,9.406c3.981,0,7.546-0.613,10.7-1.829c0.362-0.14,0.697-0.291,1.018-0.447
				c2.808,1.512,5.807,2.276,9,2.276c6.633,0,12.068-2.743,16.298-8.23c4.23-5.487,8.499-13.889,12.815-25.213
				c-0.334,8.361-0.498,15.023-0.498,19.987s0.58,8.059,1.742,9.275c3.316,2.788,8.211,4.18,14.681,4.18
				c5.644,0,10.188-1.708,16.055-10.287c3.491,6.857,9.917,10.287,19.278,10.287c9.954,0,19.907-4.221,29.86-12.672
				c9.953-8.446,15.925-20.42,17.916-35.925l0.498-9.667c-0.167-10.451-2.737-18.591-7.713-24.429
				c-4.977-5.834-11.283-8.753-18.912-8.753c-4.813,0-8.794,0.698-11.944,2.09c4.642-17.938,6.967-33.615,6.967-47.029
				c0-6.095-0.708-11.235-2.115-15.415c-1.412-4.181-2.947-6.271-4.604-6.271c-3.484,0-7.177,2.311-11.073,6.923
				c-3.899,4.618-7.675,11.235-11.322,19.857c-3.651,8.622-6.637,20.424-8.958,35.403c-2.325,14.982-3.483,30.83-3.483,47.552
				c0,10.982,0.719,20.018,2.15,27.131c-3.878,5.102-7.003,7.736-9.366,7.88c-0.995,0-1.493-2.352-1.493-7.055
				c0-24.384,0.747-38.579,2.239-42.587c1.159-2.262,2.197-5.919,3.11-10.974c0.91-5.05,1.369-8.446,1.369-10.19
				c0-6.617-1.205-9.928-3.608-9.928c-2.407,0-5.311,1.352-8.709,4.05c-3.402,2.703-5.766,5.009-7.092,6.924
				c-6.637-7.316-12.609-10.974-17.916-10.974c-12.278,0-22.189,5.401-29.735,16.199c-7.551,10.802-11.322,23.212-11.322,37.231
				c0,14.023,2.488,24.298,7.465,30.83c0.145,0.189,0.292,0.367,0.438,0.551c-1.214-0.515-2.377-1.344-3.488-2.51l-35.54-53.658
				l7.072-6.295c5.02-4.76,9.15-9.313,12.393-13.65c0.494-0.661,0.965-1.311,1.427-1.956l0.001,0
				c0.018-0.025,0.034-0.05,0.051-0.076c2.543-3.56,4.605-6.88,6.174-9.961c0.067-0.133,0.128-0.26,0.194-0.391
				c5.04-9.383,7.851-18.119,9.378-24.993c0.6-2.702,0.01-4.255-1.758-4.648c-1.773-0.394-3.682,0.604-5.733,2.985
				c-2.052,2.39-5.282,6.365-9.208,11.882c0,0-19.321,26.096-22.396,29.835c-2.79,3.392-9.638,10.039-13.432,13.538
				c0.878-11.719,2.125-24.111,3.746-37.194c2.651-21.424,4.02-35.402,4.105-41.935c0.082-6.532-1.12-9.797-3.608-9.797
				s-5.766,1.918-9.829,5.748c-4.067,3.833-6.345,6.532-6.843,8.1c-3.32,18.812-5.311,45.984-5.972,81.518
				c-0.167,6.446-0.914,17.028-2.24,31.745c-0.172,1.905-0.333,3.696-0.482,5.385c-2.869,3.508-5.965,6.292-9.298,8.332
				c-3.981,2.441-8.503,3.658-13.562,3.658c-5.062,0-9.331-2.743-12.815-8.23s-5.226-12.672-5.226-21.555s2.24-18.158,6.719-27.825
				c4.479-9.667,9.786-14.501,15.925-14.501c1.823,0,3.316,0.784,4.479,2.352c1.158,1.567,1.742,3.311,1.742,5.226l-1.991,13.325
				c0,3.311,1.407,4.964,4.23,4.964c3.316,0,6.135-1.653,8.46-4.964c2.321-3.307,3.484-8.361,3.484-15.154
				c0-3.658-1.536-6.924-4.604-9.798c-3.072-2.874-7.259-4.311-12.566-4.311c-12.608,0-23.017,5.185-31.228,15.546
				c-8.211,10.365-12.317,25.474-12.317,45.331c0,3.604,0.5,7.111,1.489,10.521c-4.382,6.06-7.867,9.179-10.444,9.336
				c-0.995,0-1.493-2.352-1.493-7.055c0-24.384,1.077-39.452,3.235-45.2c1.159-2.262,2.197-5.919,3.11-10.974
				c0.91-5.05,1.369-8.446,1.369-10.189c0-6.618-1.418-8.941-3.608-9.929C165.267,70.177,163.698,69.354,162.088,68.932z
				 M133.544,153.524c-1.991,0-2.986-3.482-2.986-10.451c0-13.063,0.995-32.308,2.986-57.741c6.201-1.332,12.038-3.203,17.522-5.604
				c-1.876,1.822-3.074,3.167-3.591,4.037c-0.832,1.396-1.784,10.843-2.861,28.348c-0.919,14.883-1.443,26.135-1.58,33.777
				C139.187,150.831,136.021,153.381,133.544,153.524z M354.87,102.706c-0.249,3.396-0.458,5.793-0.622,7.185
				c-10.618,28.74-18.662,43.11-24.137,43.11c-4.479,0-8.087-3.135-10.824-9.406c-2.737-6.271-4.106-14.28-4.106-24.037
				c0-9.753,2.613-18.244,7.838-25.474c5.225-7.226,10.159-10.843,14.805-10.843c2.819,0,6.097,1.266,9.829,3.789
				c3.732,2.527,6.345,5.185,7.838,7.969C355.325,96.742,355.119,99.31,354.87,102.706z M400.405,66.389
				c1.742-12.974,3.647-23.253,5.724-30.831c2.072-7.577,3.856-11.365,5.35-11.365c1.823,0,2.737,3.658,2.737,10.973
				c0,13.938-5.475,37.191-16.423,69.76C397.792,92.214,398.663,79.367,400.405,66.389z M426.035,147.384
				c-5.56,5.14-11.24,7.708-17.045,7.708c-3.651,0-6.306-2.874-7.963-8.622c-1.66-5.748-2.655-15.24-2.986-28.479
				c2.154-4.005,4.063-8.186,5.723-12.542c0-2.437,10.408-16.938,11.82-18.419c1.407-1.478,3.273-2.221,5.599-2.221
				c5.307,0,9.207,2.703,11.695,8.1c2.488,5.401,3.317,22.384,3.484,29.524C435.032,133.928,431.591,142.248,426.035,147.384z"/>
		</g>
		<g>
			<path fill="#F8F9F9" d="M566.121,97.611c-0.914,0-1.742,0.698-2.488,2.09c-0.747,1.396-1.785,3.658-3.11,6.793
				c-4.977,12.194-10.949,23.082-17.916,32.659c-3.32,4.531-6.967,8.014-10.948,10.451c-3.981,2.441-8.46,3.658-13.437,3.658
				s-9.332-2.482-13.064-7.446c-3.732-4.964-5.933-10.843-6.594-17.636c12.107-0.347,22.352-4.05,30.73-11.104
				c8.375-7.055,12.566-15.807,12.566-26.258c0-5.572-1.828-9.969-5.475-13.194c-3.651-3.221-8.297-4.833-13.935-4.833
				c-12.111,0-21.982,4.878-29.611,14.631c-7.632,9.757-11.446,24.127-11.446,43.11c0,5.188,0.837,10.07,2.503,14.649
				c-4.042,5.409-7.283,8.194-9.716,8.343c-1.827,0-2.737-5.356-2.737-16.068c0-10.712,0.249-23.294,0.747-37.754
				c13.103-28.042,19.657-53.385,19.657-76.03c0-3.135-0.665-6.401-1.99-9.798c-1.33-3.396-3.484-5.095-6.47-5.095
				c-12.776,0-20.902,13.847-24.386,41.542c-4.148,33.618-6.221,60.224-6.221,79.819c0,19.596,0.828,30.438,2.488,32.529
				c0.661,0.874,2.527,1.788,5.599,2.743c3.068,0.955,6.427,1.437,10.078,1.437c6.494,0,10.822-0.841,17.705-12.448
				c0.309,0.451,0.626,0.899,0.955,1.344c5.474,7.405,12.854,11.104,22.146,11.104c16.088,0,29.611-9.316,40.56-27.956
				c10.117-17.416,15.179-30.479,15.179-39.191C567.489,98.309,567.031,97.611,566.121,97.611z M505.033,93.823
				c3.981-8.446,8.872-12.672,14.681-12.672c4.81,0,7.216,3.919,7.216,11.757s-2.282,14.199-6.843,19.073
				c-4.564,4.879-11.738,8.189-21.524,9.929C498.893,111.634,501.051,102.273,505.033,93.823z M483.636,17.662
				c1.326,0,1.99,2.788,1.99,8.36c0,13.938-4.315,32.835-12.939,56.696C475.008,39.347,478.659,17.662,483.636,17.662z"/>
		</g>
	</g>
</g>
</svg>
